<?xml version="1.0" encoding="UTF-8"?>
<svg version="1.1" viewBox="0 0 2048 2048" width="4096" height="4096" xmlns="http://www.w3.org/2000/svg">
<path transform="translate(0)" d="m0 0h2048v2048h-2048z" fill="#0F0F1E"/>
<path transform="translate(623,382)" d="m0 0h579l48 1 29 3 25 5 21 7 16 8 12 8 13 12 7 7 11 15 8 16 5 13 4 18 2 18v12l-2 17-4 17-8 20-7 13-10 14-11 12-7 8-8 7-14 12-16 12-17 12-18 13-19 12 32 8 29 9 24 11 15 9 14 11 12 11 9 11 9 14 8 16 6 21 4 26v37l-1 11-2 4-29 15-46 23-23 11-94 46-33 16-24 12-23 11-28 14-23 11-80 40-21 9-18 6-23 5-18 2h-37l-26-4-19-5-19-7-17-8-24-14-11-6-24-14-26-15-23-13-26-15-24-14-26-15-12-7v-54l6 2 25 12 23 12 22 12 46 23 19 10 24 12 23 11 22 10 27 8 20 3 11 1h28l24-4 24-7 21-9 21-10 44-22 23-11 82-40 25-12 52-26 12-9 6-7 7-14 3-13v-20l-5-16-7-11-9-10-15-10-15-7-20-6-19-3-211-1 4-4 33-22 28-19 20-14 19-13 25-17 20-14 22-15 28-19 43-30 15-10 14-10 9-10 7-12 3-11v-10l-3-11-6-8-7-6-15-6-9-2-14-1h-209l-118-1-17-2-21-5-15-6-31-15-23-13-27-15-23-13-49-28-15-9-19-11-9-6z" fill="#026DF8"/>
<path transform="translate(1523,1341)" d="m0 0h42l22 1 22 3 23 6 16 7 13 7 11 8 12 11 12 15 8 15 6 16 5 25 1 10v23l-2 17-5 20-7 16-7 13-11 14-9 9-15 11-21 11-18 6-18 4-17 2h-167l1-7 13-53v-153l-15-52v-4z" fill="#fff"/>
<path transform="translate(409,1341)" d="m0 0h85l17 1 23 4 16 5 13 7 12 11 8 11 5 12 3 17v14l-3 16-8 16-10 11-9 6 15 9 7 6 9 12 5 12 3 13v25l-4 15-8 15-12 12-13 8-15 6-18 4-17 2h-181v-269z" fill="#026DF8"/>
<path transform="translate(889,1341)" d="m0 0h133l31 1 24 4 18 6 16 10 8 8 8 13 4 11 2 12v19l-2 12-5 13-8 11-10 9-3 2 11 7 12 11 7 10 5 13 3 17v11l-2 14-4 12-6 11-9 10-13 9-15 7-21 5-17 2h-180l-1-6v-253l1-10z" fill="#026DF8"/>
<path transform="translate(1417,933)" d="m0 0 1 4-8 23-8 18-9 15-11 15-11 13-18 18-19 14-19 11-30 15-23 11-22 11-23 11-17 8-46 23-23 11-34 17-46 22-26 10-25 7-22 4-18 2h-20l-26-3-29-6-27-9-24-11-24-13-49-28-27-16-28-16-26-15-27-16-26-16-3-2-1-37 5 2 29 16 42 24 50 28 21 12 29 16 19 10 23 9 19 5 26 4 13 1h16l21-2 26-5 24-7 20-7 28-12 78-39 23-11 42-21 23-11 40-20 18-8 19-10 25-12 47-23 44-22 23-11z" fill="#EE7A08"/>
<path transform="translate(1246,1341)" d="m0 0h37l30 1 19 3 21 7 15 9 10 10 6 10 4 11 2 15v16l-2 14-4 13-7 11-10 10-4 3 14 9 5 4 9 12 5 11 3 13v22l-4 16-8 16-11 12-14 9-16 7-23 5-9 1h-145l4-19 9-36 122-1 15-3 10-6 4-7 1-4v-13l-4-10-7-6-11-4-11-1-88-1 2-10 10-37 1-3 60-1 21-1 10-3 7-6 3-7v-15l-4-10-7-6-5-2-6-1-133-1 7-30 6-23 1-2z" fill="#fff"/>
<path transform="translate(668,1341)" d="m0 0 35 1v211h140l-2 11-11 40-2 7h-191l-1-64 1-205z" fill="#026DF8"/>
<path transform="translate(1500,1396)" d="m0 0h77l16 2 16 5 13 7 12 11 7 11 5 13 3 13 1 8v22l-3 16-5 13-6 10-10 11-14 9-14 5-12 3-7 1h-80v-159z" fill="#0F0F20"/>
<path transform="translate(624,446)" d="m0 0 5 2 17 8 21 12 24 13 22 12 25 14 21 12 30 16 17 10 24 13 19 10 20 8 17 5 22 4 8 1 184 1 43 1-5 4-19 13-27 18-5 3-119 2h-38l-31-3-26-6-21-7-20-9-19-10-24-14-23-13-25-14-24-14-22-12-19-11-28-16-24-14z" fill="#026DF8"/>
<path transform="translate(878,800)" d="m0 0 9 1 18 3 13 1h94l192 1 11 4 7 6 5 9 1 4v7l-4 10-5 6-10 6-12 3-7 1h-249l-23-2-17-4-16-6-21-11-21-12 2-4 13-9z" fill="#EE7A08"/>
<path transform="translate(624,782)" d="m0 0 5 2 25 14 23 13 52 29 22 12 23 13 24 13 23 13 18 10 22 11 19 7 19 5 20 3 16 1 118 1-3 3-28 15-32 17-4 2-7 1-17 1-44 1-22-2-22-5-16-6-21-11-21-12-27-15-15-9-26-15-29-16-21-12-24-14-25-14-21-12-5-3v-19z" fill="#EE7A08"/>
<path transform="translate(624,551)" d="m0 0 6 2 22 12 25 14 19 11 20 11 49 28 27 15 54 29 25 10 21 5 20 3 44 2 33 1-4 3-27 15-17 10-16 8-14 2h-13l-18-3-26-8-24-11-18-10-17-10-43-24-24-14-25-14-26-15-24-14-25-14-4-3z" fill="#026DF8"/>
<path transform="translate(624,663)" d="m0 0 15 8 24 13 23 13 28 15 21 12 24 13 23 13 28 15 16 9 24 13 27 12v3l-19 13-15 11-6-1-20-11-23-13-26-15-29-16-24-14-22-12-24-14-46-26v-13z" fill="#026CF7"/>
<path transform="translate(399,1499)" d="m0 0h96l13 1 12 4 6 4 5 6 3 9v10l-3 10-6 7-10 5-9 2-10 1h-97l-1-1v-57z" fill="#100F1E"/>
<path transform="translate(944,1499)" d="m0 0h97l13 2 11 4 7 6 4 9v17l-4 8-8 7-10 4-19 2h-93l-1-1v-57z" fill="#100F1E"/>
<path transform="translate(399,1395)" d="m0 0h97l14 3 7 4 6 8 2 5v15l-4 8-8 7-13 4-96 1-5-1-1-5v-48z" fill="#100F1E"/>
<path transform="translate(941,1395)" d="m0 0h98l14 3 8 5 6 10 1 4v11l-3 9-9 8-9 3-6 1h-100z" fill="#100F1E"/>
</svg>
